<?xml version="1.0" encoding="UTF-8" standalone="no"?>
<svg
   id="Layer_3"
   viewBox="0 0 2255.7872 2255.7872"
   version="1.1"
   sodipodi:docname="Drishyam Logo Colored without font SVG.svg"
   xmlns:inkscape="http://www.inkscape.org/namespaces/inkscape"
   xmlns:sodipodi="http://sodipodi.sourceforge.net/DTD/sodipodi-0.dtd"
   xmlns:xlink="http://www.w3.org/1999/xlink"
   xmlns="http://www.w3.org/2000/svg"
   xmlns:svg="http://www.w3.org/2000/svg">
  <sodipodi:namedview
     id="namedview6"
     pagecolor="#ffffff"
     bordercolor="#000000"
     borderopacity="0.25"
     inkscape:showpageshadow="2"
     inkscape:pageopacity="0.0"
     inkscape:pagecheckerboard="0"
     inkscape:deskcolor="#d1d1d1" />
  <defs
     id="defs3">
    <style
       id="style1">.cls-1{fill:url(#linear-gradient-2);}.cls-2{fill:url(#linear-gradient-3);}.cls-3{fill:url(#linear-gradient);}.cls-4{fill:url(#linear-gradient-4);}</style>
    <linearGradient
       id="linear-gradient"
       x1="1243.8172"
       y1="590.5396"
       x2="2039.2875"
       y2="590.5396"
       gradientTransform="matrix(1, 0, 0, 1, 0, 0)"
       gradientUnits="userSpaceOnUse">
      <stop
         offset="0"
         stop-color="#2b3990"
         id="stop1" />
      <stop
         offset=".5011"
         stop-color="#da1c5c"
         id="stop2" />
      <stop
         offset="1"
         stop-color="#ef4136"
         id="stop3" />
    </linearGradient>
    <linearGradient
       id="linear-gradient-2"
       x1="216.4994"
       y1="1664.8326"
       x2="1011.9607"
       y2="1664.8326"
       xlink:href="#linear-gradient" />
    <linearGradient
       id="linear-gradient-3"
       x1="1700.2726"
       y1="451.2217"
       x2="1843.8558"
       y2="451.2217"
       xlink:href="#linear-gradient" />
    <linearGradient
       id="linear-gradient-4"
       x1="551.7609"
       y1="1164.5684"
       x2="1704.0525"
       y2="1164.5684"
       xlink:href="#linear-gradient" />
  </defs>
  <g
     id="g5">
    <path
       class="cls-3"
       d="M1493.2015,218.346c71.4385,.1401,142.4775-.5132,214.2656,.46,73.6436,.7427,153.957,18.064,212.832,63.0249,59.853,43.5981,98.2661,114.8364,110.6865,191.9458,6.7866,38.5923,7.7466,76.4126,7.9673,113.4482,.4175,118.1641,.1021,235.9668,.3345,354.0688-.0859,17.418-.5664,25.333-6.8384,20.8052-5.792-4.0947-12.8906-6.3994-20.7861-6.563-9.3652-.1382-11.5615-10.0298-11.916-29.5718-2.7915-119.1914-9.0562-236.5684-17.8789-348.3901-3.7661-45.6182-7.6919-90.4082-26.8306-135.8022-39.6118-98.8457-136.7612-156.6934-237.1753-163.6445-139.8042-12.2803-288.8013-19.7119-440.1211-22.3052-20.436-.2534-28.6206-2.9731-28.4194-11.6914,.1445-8.0669-1.8164-15.144-4.8892-20.8613-2.5825-4.7642,2.8892-5.5063,17.8359-5.543,76.9199,.1782,153.7539,.0981,230.5864,.1113,.1167,.1616,.23,.3374,.3467,.5083Z"
       id="path3" />
    <path
       class="cls-1"
       d="M771.0565,2037.9553c-66.7686-.0132-133.5381-.0259-200.2896-.0439-95.0107,1.4751-197.8115-22.9126-261.4956-87.0776-66.0977-61.6924-93.0801-163.1631-92.2202-258.7866-1.0137-127.7979-.2432-254.7129-.5518-382.1772,.041-15.0469,.8057-20.5068,5.7207-17.4478,5.6777,3.48,12.5938,6.1675,20.3726,6.4946,8.8354,.3218,12.4663,6.8208,12.873,29.687,2.853,129.8525,9.5972,257.4844,20.104,378.5454,5.3359,61.7935,24.2217,121.1558,60.397,166.9463,35.7031,46.1343,88.6973,78.6948,151.397,94.7954,20.0249,5.2871,40.3931,8.8848,60.5356,10.5342,137.8042,11.354,284.4956,18.7095,433.2695,21.1846,18.437,.2261,25.5034,2.4907,25.3101,10.4785-.1621,8.4644,2.1387,15.8315,4.9961,21.7515,2.1113,4.3315-2.5127,5.1938-16.7764,5.2212-74.6045-.1748-149.123-.1084-223.6421-.1055Z"
       id="path4" />
    <path
       class="cls-2"
       d="M1787.2196,518.8084c-38.8247-7.4414-78.1841-45.8496-85.687-83.1206-7.3965-36.3613,18.5488-58.1641,57.4355-52.4629,40.1538,5.8833,76.3618,39.7056,83.6211,78.7563,7.1152,38.2959-16.3447,64.4072-55.3696,56.8271Z"
       id="path5" />
  </g>
  <path
     class="cls-4"
     d="M1703.0282,1136.3728c-10.5527-172.5806-85.7598-316.3394-222.0513-425.3301-171.9624-137.353-468.6479-168.9409-684.3428-40.3818-167.5947,100.9995-250.4316,243.5259-244.584,439.0049,1.8804,54.8682,15.2271,106.6582,45.5161,152.7153,52.3145,79.3447,127.7139,123.0166,221.812,138.5811,11.8774,1.9443,15.6118,4.0674,11.3491,16.1772-17.1597,48.9146-32.3638,96.6987-47.6201,141.8857-15.0728,44.6685-30.7456,86.4829-47.9004,124.5913-10.958,24.5229,.8213,39.8979,31.5659,43.897,2.3643,.2969,4.7236,.4883,7.0869,.6675,60.8174,4.561,123.8037,7.8911,187.793,9.9995-.0137-.2354-.0225-.4658-.0361-.6997,25.46,.8418,51.1016,1.6787,76.7935,1.8911,65.7539,.5259,131.5938,2.4409,197.4287-9.3838,138.4258-24.2251,261.8408-100.6265,345.9634-207.814,84.5288-106.9385,129.7651-244.6631,121.2261-385.8013Zm-327.5908,336.7993c-94.2798,81.4717-205.7231,124.5283-324.3477,143.6382-32.5981,5.2349-65.8296-1.5386-98.4663-3.7974-12.9028-.9048-14.9595-9.6372-12.2812-19.7471,7.3921-27.8345,19.3911-54.8022,32.1318-82.187,43.4219-93.3638,90.3506-194.2437,138.3037-296.6528,12.2227-26.103,18.4121-53.9302,23.8179-81.9023,3.1743-16.3999-7.6138-25.5679-22.8096-27.1807-19.604-2.0864-39.4126-2.1782-57.832-3.0537-39.9966,.6899-78.5347,1.3931-115.4312,13.0244-24.8589,7.8271-43.355,22.5361-53.479,47.4512-5.7773,14.2178-11.7969,28.6055-19.98,41.2544-27.9453,43.0566-88.8135,54.3916-131.3447,24.4673-53.313-37.4985-73.4351-90.6626-66.4346-156.1245,14.9033-134.5918,92.3105-219.9404,210.79-276.2886,262.5171-125.4199,578.1978,35.1934,628.6509,324.2402,25.4019,144.2397-23.521,259.2729-131.2881,352.8584Z"
     id="path6" />
</svg>
