<?xml version="1.0" encoding="UTF-8"?>
<svg id="Layer_1" data-name="Layer 1" xmlns="http://www.w3.org/2000/svg" xmlns:xlink="http://www.w3.org/1999/xlink" viewBox="0 0 56.43 30">
  <defs>
    <style>
      .cls-1 {
        fill: url(#linear-gradient);
      }
    </style>
    <linearGradient id="linear-gradient" x1="9.94" y1="15" x2="46.48" y2="15" gradientUnits="userSpaceOnUse">
      <stop offset="0" stop-color="#2b3990"/>
      <stop offset=".5" stop-color="#da1c5c"/>
      <stop offset="1" stop-color="#ef4136"/>
    </linearGradient>
  </defs>
  <path class="cls-1" d="M13.21,12.95c.37.2.66.48.86.84.2.36.3.76.3,1.22s-.1.86-.3,1.22c-.2.36-.49.64-.86.85-.37.21-.81.31-1.3.31h-1.97v-4.73h1.97c.49,0,.93.1,1.3.3ZM12.57,15.79c.2-.18.29-.44.29-.78s-.1-.6-.29-.78c-.2-.18-.46-.27-.8-.27h-.35v2.11h.35c.33,0,.6-.09.8-.27ZM17.28,17.38l-.89-1.7h0v1.7h-1.48v-4.73h2.21c.38,0,.71.07.98.2.27.14.48.32.61.55.14.23.2.5.2.79,0,.32-.09.6-.26.84-.18.25-.43.42-.76.53l1.03,1.81h-1.63ZM16.39,14.7h.59c.14,0,.25-.03.32-.1.07-.06.11-.17.11-.3,0-.12-.04-.22-.11-.29-.07-.07-.18-.11-.32-.11h-.59v.8ZM20.87,12.65v4.73h-1.48v-4.73h1.48ZM21.99,17.03c-.37-.27-.57-.65-.6-1.17h1.58c.02.27.14.41.36.41.08,0,.15-.02.2-.06.06-.04.08-.1.08-.18,0-.11-.06-.2-.18-.27-.12-.07-.31-.15-.56-.24-.3-.11-.55-.21-.75-.31-.2-.1-.37-.25-.51-.45-.14-.2-.21-.45-.21-.76,0-.31.08-.57.24-.79.16-.22.37-.38.65-.49s.58-.17.93-.17c.58,0,1.04.13,1.38.4s.52.64.54,1.13h-1.6c0-.13-.04-.23-.1-.29-.06-.06-.14-.09-.23-.09-.06,0-.11.02-.15.06-.04.04-.06.1-.06.18,0,.11.06.19.18.26.12.07.31.15.56.25.3.11.54.22.74.32.19.1.36.25.5.43.14.18.21.41.21.69s-.07.55-.21.78c-.14.23-.35.41-.62.54-.27.13-.59.19-.97.19-.57,0-1.03-.13-1.4-.4ZM30.09,12.65v4.73h-1.48v-1.84h-1.41v1.84h-1.48v-4.73h1.48v1.7h1.41v-1.7h1.48ZM35.3,12.65l-1.7,3.29v1.44h-1.48v-1.44l-1.7-3.29h1.7l.76,1.68.76-1.68h1.67ZM38.67,16.67h-1.58l-.23.71h-1.56l1.73-4.73h1.71l1.72,4.73h-1.56l-.23-.71ZM38.31,15.55l-.43-1.32-.43,1.32h.86ZM46.48,12.65v4.73h-1.48v-2.36l-.73,2.36h-1.27l-.73-2.36v2.36h-1.48v-4.73h1.82l1.04,2.84,1.02-2.84h1.81Z"/>
</svg>